<svg width="306" height="306" viewBox="0 0 306 306" fill="none" xmlns="http://www.w3.org/2000/svg">
<rect width="306" height="306" fill="#080808"/>
<path d="M69.58 85.6L114.03 85.74L114.1 120.32C114.1 122.467 113.68 124.497 112.84 126.41C112.047 128.323 110.927 130.003 109.48 131.45C108.08 132.85 106.423 133.97 104.51 134.81C102.643 135.603 100.613 136 98.42 136H61.81C59.3833 136 57.1667 135.463 55.16 134.39C53.2 133.317 51.4967 131.917 50.05 130.19C48.6033 128.417 47.4833 126.41 46.69 124.17C45.8967 121.93 45.5 119.643 45.5 117.31V115.07H57.05C57.05 116.237 57.2133 117.403 57.54 118.57C57.9133 119.69 58.4267 120.693 59.08 121.58C59.78 122.42 60.62 123.12 61.6 123.68C62.58 124.193 63.7 124.45 64.96 124.45H94.29C95.55 124.45 96.67 124.24 97.65 123.82C98.6767 123.353 99.54 122.747 100.24 122C100.987 121.207 101.547 120.297 101.92 119.27C102.34 118.197 102.55 117.077 102.55 115.91V97.15H69.58V85.6ZM171.172 136H136.032C133.885 136 131.855 135.603 129.942 134.81C128.075 133.97 126.419 132.85 124.972 131.45C123.572 130.003 122.452 128.347 121.612 126.48C120.819 124.567 120.422 122.537 120.422 120.39V101.21C120.422 99.0633 120.819 97.0567 121.612 95.19C122.452 93.2767 123.572 91.62 124.972 90.22C126.419 88.7733 128.075 87.6533 129.942 86.86C131.855 86.02 133.885 85.6 136.032 85.6H171.172C173.319 85.6 175.325 86.02 177.192 86.86C179.105 87.6533 180.762 88.7733 182.162 90.22C183.609 91.62 184.729 93.2767 185.522 95.19C186.362 97.0567 186.782 99.0633 186.782 101.21V120.39C186.782 122.537 186.362 124.567 185.522 126.48C184.729 128.347 183.609 130.003 182.162 131.45C180.762 132.85 179.105 133.97 177.192 134.81C175.325 135.603 173.319 136 171.172 136ZM141.912 124.45L155.492 97.15H140.162C139.042 97.15 137.969 97.36 136.942 97.78C135.962 98.2 135.099 98.7833 134.352 99.53C133.605 100.23 133.022 101.093 132.602 102.12C132.182 103.1 131.972 104.173 131.972 105.34V116.26C131.972 117.427 132.182 118.5 132.602 119.48C133.022 120.46 133.605 121.323 134.352 122.07C135.099 122.817 135.962 123.4 136.942 123.82C137.922 124.24 138.995 124.45 140.162 124.45H141.912ZM175.232 116.26V105.48C175.232 104.313 175.022 103.217 174.602 102.19C174.182 101.163 173.599 100.277 172.852 99.53C172.105 98.7833 171.219 98.2 170.192 97.78C169.165 97.36 168.069 97.15 166.902 97.15H165.292L151.712 124.45H167.112C168.232 124.45 169.282 124.24 170.262 123.82C171.289 123.4 172.152 122.817 172.852 122.07C173.599 121.323 174.182 120.46 174.602 119.48C175.022 118.5 175.232 117.427 175.232 116.26ZM222.636 107.58L243.426 85.6H258.826L227.746 119.2H227.466V136H215.916V119.2H215.566L183.996 85.6H199.466L220.606 107.58H222.636ZM69.58 169.6L114.03 169.74L114.1 204.32C114.1 206.467 113.68 208.497 112.84 210.41C112.047 212.323 110.927 214.003 109.48 215.45C108.08 216.85 106.423 217.97 104.51 218.81C102.643 219.603 100.613 220 98.42 220H61.81C59.3833 220 57.1667 219.463 55.16 218.39C53.2 217.317 51.4967 215.917 50.05 214.19C48.6033 212.417 47.4833 210.41 46.69 208.17C45.8967 205.93 45.5 203.643 45.5 201.31V199.07H57.05C57.05 200.237 57.2133 201.403 57.54 202.57C57.9133 203.69 58.4267 204.693 59.08 205.58C59.78 206.42 60.62 207.12 61.6 207.68C62.58 208.193 63.7 208.45 64.96 208.45H94.29C95.55 208.45 96.67 208.24 97.65 207.82C98.6767 207.353 99.54 206.747 100.24 206C100.987 205.207 101.547 204.297 101.92 203.27C102.34 202.197 102.55 201.077 102.55 199.91V181.15H69.58V169.6ZM176.036 187.24C176.036 186.493 175.873 185.77 175.546 185.07C175.22 184.323 174.73 183.67 174.076 183.11C173.47 182.503 172.676 182.037 171.696 181.71C170.716 181.337 169.55 181.15 168.196 181.15H136.206C134.573 181.15 133.15 181.57 131.936 182.41C130.77 183.203 130.186 184.417 130.186 186.05C130.186 187.217 130.723 188.127 131.796 188.78C132.87 189.387 134.41 189.69 136.416 189.69H171.696C173.936 189.69 176.013 190.017 177.926 190.67C179.84 191.323 181.52 192.28 182.966 193.54C184.413 194.753 185.533 196.27 186.326 198.09C187.166 199.91 187.586 201.987 187.586 204.32C187.586 206.467 187.166 208.497 186.326 210.41C185.533 212.323 184.413 214.003 182.966 215.45C181.566 216.85 179.91 217.97 177.996 218.81C176.13 219.603 174.1 220 171.906 220H135.296C132.87 220 130.653 219.487 128.646 218.46C126.686 217.387 124.983 216.01 123.536 214.33C122.09 212.65 120.97 210.76 120.176 208.66C119.383 206.56 118.986 204.46 118.986 202.36H130.536C130.536 203.06 130.676 203.783 130.956 204.53C131.283 205.23 131.75 205.883 132.356 206.49C133.01 207.05 133.826 207.517 134.806 207.89C135.833 208.263 137.046 208.45 138.446 208.45H169.736C170.623 208.45 171.463 208.333 172.256 208.1C173.05 207.82 173.726 207.47 174.286 207.05C174.893 206.63 175.36 206.14 175.686 205.58C176.06 204.973 176.246 204.343 176.246 203.69C176.246 202.243 175.663 201.31 174.496 200.89C173.33 200.47 171.743 200.26 169.736 200.26H135.226C133.08 200.26 131.003 199.933 128.996 199.28C127.036 198.58 125.31 197.6 123.816 196.34C122.37 195.08 121.203 193.517 120.316 191.65C119.43 189.783 118.986 187.66 118.986 185.28C118.986 183.087 119.383 181.057 120.176 179.19C121.016 177.277 122.136 175.62 123.536 174.22C124.983 172.773 126.663 171.653 128.576 170.86C130.49 170.02 132.52 169.6 134.666 169.6H171.276C173.703 169.6 175.92 170.137 177.926 171.21C179.933 172.237 181.636 173.59 183.036 175.27C184.483 176.95 185.603 178.84 186.396 180.94C187.19 183.04 187.586 185.14 187.586 187.24H176.036Z" fill="white"/>
</svg>
